<?xml version="1.0" encoding="utf-8"?>
<!-- Generator: Adobe Illustrator 16.0.0, SVG Export Plug-In . SVG Version: 6.00 Build 0)  -->
<!DOCTYPE svg PUBLIC "-//W3C//DTD SVG 1.1//EN" "http://www.w3.org/Graphics/SVG/1.1/DTD/svg11.dtd">
<svg version="1.1" id="圖層_1" xmlns="http://www.w3.org/2000/svg" xmlns:xlink="http://www.w3.org/1999/xlink" x="0px" y="0px"
	 width="36px" height="36px" viewBox="0 0 36 36" enable-background="new 0 0 36 36" xml:space="preserve">
<g>
	<path fill="#E24740" d="M34.361,29.419c0,3.634-3.051,6.581-6.813,6.581H8.475c-3.764,0-6.813-2.947-6.813-6.581V9.805
		c0-3.634,3.051-6.581,6.813-6.581h19.073c3.765,0,6.813,2.946,6.813,6.581V29.419z"/>
	<path fill="#FFFFFF" d="M23.82,7.281c1.354-0.004,3.1,0.006,3.783,0.066c1.543,0.139,2.982,0.721,3.405,2.662l0.353,1.057
		L30.95,9.188c-0.413-1.94-1.491-2.578-3.241-2.677c-0.8-0.046-3.084,0.021-4.378,0.065C23.548,6.783,23.716,7.02,23.82,7.281z"/>
	<path fill="#FFFFFF" d="M31.293,26.204c-0.902,3.542-10.859,4.335-13.182,4.427l-6.955,0.377c-3.021-0.029-4.553-1.455-5.249-3.354
		c-0.345,0.199-0.726,0.344-1.132,0.418c0.579,2.248,2.152,4.042,5.7,4.068l7.731-0.567c2.42-0.097,11.522-0.988,13.008-3.814
		c0.484-0.923,0.304-2.298,0.304-2.298S31.341,26.016,31.293,26.204z"/>
	<circle fill="#FFFFFF" cx="10.104" cy="33.448" r="0.881"/>
	<circle fill="#FFFFFF" cx="27.951" cy="31.309" r="0.881"/>
	<g>
		<path fill="#FFFFFF" d="M7.781,23.84c0,0.277-0.057,0.523-0.17,0.74c-0.111,0.221-0.277,0.393-0.492,0.514
			c-0.219,0.127-0.477,0.188-0.773,0.188c-0.357,0-0.65-0.084-0.883-0.255c-0.165-0.12-0.297-0.284-0.4-0.486
			c-0.102-0.205-0.154-0.4-0.154-0.594c0-0.112,0.031-0.208,0.092-0.286c0.063-0.082,0.14-0.123,0.236-0.123
			c0.077,0,0.143,0.035,0.195,0.095c0.053,0.063,0.099,0.153,0.136,0.275c0.048,0.146,0.097,0.266,0.149,0.363
			c0.054,0.099,0.128,0.176,0.228,0.239c0.097,0.063,0.224,0.095,0.38,0.095c0.218,0,0.396-0.063,0.53-0.188
			c0.133-0.126,0.203-0.287,0.203-0.478c0-0.149-0.039-0.27-0.111-0.366c-0.071-0.095-0.165-0.165-0.28-0.218
			c-0.117-0.045-0.271-0.1-0.465-0.155c-0.261-0.076-0.479-0.167-0.654-0.271c-0.174-0.102-0.314-0.24-0.416-0.418
			S4.98,22.117,4.98,21.854c0-0.248,0.054-0.475,0.16-0.666c0.109-0.194,0.266-0.344,0.473-0.446
			c0.205-0.106,0.445-0.157,0.724-0.157c0.224,0,0.416,0.034,0.576,0.104c0.162,0.069,0.296,0.16,0.403,0.276
			c0.104,0.114,0.186,0.237,0.233,0.362c0.05,0.127,0.072,0.247,0.072,0.367c0,0.111-0.029,0.209-0.09,0.297
			c-0.064,0.085-0.142,0.134-0.232,0.134c-0.084,0-0.146-0.026-0.19-0.08c-0.043-0.054-0.09-0.14-0.142-0.256
			c-0.065-0.177-0.146-0.312-0.237-0.406s-0.238-0.141-0.443-0.141c-0.188,0-0.34,0.051-0.457,0.153
			c-0.114,0.104-0.172,0.229-0.172,0.375c0,0.092,0.018,0.17,0.059,0.232c0.039,0.066,0.094,0.125,0.162,0.174
			c0.07,0.047,0.139,0.085,0.21,0.109c0.069,0.029,0.188,0.066,0.349,0.119c0.207,0.06,0.39,0.127,0.556,0.199
			s0.306,0.158,0.422,0.263c0.114,0.103,0.206,0.235,0.271,0.393C7.749,23.415,7.781,23.611,7.781,23.84"/>
		<path fill="#FFFFFF" d="M8.406,23.326v-2.186c0-0.188,0.033-0.328,0.101-0.418C8.572,20.628,8.66,20.58,8.77,20.58
			c0.113,0,0.205,0.048,0.271,0.143c0.065,0.09,0.101,0.229,0.101,0.418v2.234c0,0.253,0.021,0.464,0.066,0.636
			c0.046,0.171,0.127,0.304,0.242,0.399c0.113,0.091,0.273,0.139,0.482,0.139c0.284,0,0.485-0.097,0.606-0.288
			c0.116-0.19,0.176-0.479,0.176-0.868v-2.252c0-0.188,0.033-0.33,0.099-0.42c0.067-0.093,0.152-0.14,0.264-0.14
			s0.199,0.047,0.27,0.14c0.067,0.09,0.102,0.23,0.102,0.42v2.187c0,0.354-0.026,0.651-0.081,0.888
			c-0.056,0.236-0.159,0.447-0.312,0.627c-0.135,0.152-0.287,0.262-0.459,0.334c-0.176,0.068-0.38,0.105-0.613,0.105
			c-0.276,0-0.518-0.039-0.717-0.113c-0.201-0.077-0.365-0.191-0.49-0.35c-0.127-0.156-0.219-0.361-0.277-0.609
			C8.438,23.962,8.406,23.668,8.406,23.326"/>
		<path fill="#FFFFFF" d="M13.641,23.436h-0.67v1.284c0,0.188-0.035,0.325-0.103,0.419c-0.069,0.096-0.157,0.143-0.263,0.143
			c-0.111,0-0.201-0.047-0.267-0.143c-0.069-0.094-0.103-0.229-0.103-0.412v-3.502c0-0.203,0.037-0.348,0.111-0.437
			c0.072-0.083,0.191-0.128,0.353-0.128h0.938c0.277,0,0.49,0.025,0.641,0.079c0.147,0.053,0.275,0.14,0.386,0.26
			c0.106,0.118,0.188,0.263,0.244,0.438c0.057,0.176,0.085,0.369,0.085,0.584c0,0.461-0.114,0.813-0.344,1.055
			C14.426,23.313,14.09,23.436,13.641,23.436 M13.464,21.352h-0.493v1.388h0.493c0.171,0,0.313-0.021,0.433-0.068
			c0.115-0.046,0.203-0.118,0.265-0.223c0.063-0.104,0.092-0.238,0.092-0.404c0-0.201-0.048-0.364-0.14-0.487
			C14.006,21.42,13.789,21.352,13.464,21.352"/>
		<path fill="#FFFFFF" d="M17.986,21.369h-1.648v1.115h1.52c0.11,0,0.195,0.033,0.25,0.096s0.082,0.146,0.082,0.25
			s-0.027,0.186-0.082,0.252c-0.055,0.064-0.139,0.098-0.25,0.098h-1.521v1.293h1.706c0.114,0,0.202,0.032,0.26,0.098
			c0.059,0.068,0.088,0.158,0.088,0.271c0,0.105-0.029,0.19-0.088,0.262c-0.058,0.067-0.146,0.104-0.26,0.104h-1.988
			c-0.16,0-0.275-0.048-0.346-0.139c-0.068-0.086-0.105-0.231-0.105-0.43v-3.414c0-0.133,0.019-0.242,0.049-0.326
			c0.031-0.082,0.08-0.143,0.146-0.182s0.15-0.057,0.256-0.057h1.932c0.117,0,0.205,0.031,0.262,0.096
			c0.057,0.068,0.085,0.152,0.085,0.26c0,0.105-0.028,0.191-0.085,0.256C18.191,21.337,18.104,21.369,17.986,21.369"/>
		<path fill="#FFFFFF" d="M19.957,23.26h-0.258v1.461c0,0.189-0.032,0.334-0.102,0.426c-0.064,0.09-0.154,0.135-0.262,0.135
			c-0.118,0-0.209-0.047-0.273-0.143c-0.063-0.094-0.095-0.231-0.095-0.419v-3.495c0-0.199,0.035-0.344,0.106-0.432
			c0.068-0.088,0.184-0.133,0.341-0.133h1.19c0.164,0,0.308,0.006,0.422,0.023c0.115,0.021,0.222,0.056,0.315,0.108
			c0.114,0.062,0.214,0.146,0.3,0.258c0.09,0.109,0.155,0.241,0.2,0.388c0.046,0.147,0.067,0.305,0.067,0.471
			c0,0.338-0.075,0.611-0.229,0.814c-0.149,0.202-0.382,0.344-0.69,0.43c0.129,0.086,0.255,0.213,0.372,0.383
			c0.119,0.172,0.224,0.354,0.316,0.543c0.094,0.189,0.163,0.363,0.217,0.517c0.053,0.154,0.076,0.261,0.076,0.316
			c0,0.062-0.013,0.12-0.045,0.181c-0.031,0.061-0.072,0.104-0.125,0.139s-0.111,0.052-0.182,0.052c-0.081,0-0.15-0.023-0.207-0.072
			c-0.057-0.05-0.104-0.11-0.145-0.185c-0.039-0.076-0.097-0.184-0.162-0.33l-0.295-0.611c-0.106-0.227-0.199-0.396-0.283-0.514
			c-0.081-0.12-0.168-0.2-0.252-0.241C20.191,23.283,20.088,23.26,19.957,23.26 M20.375,21.352h-0.676V22.6h0.656
			c0.176,0,0.322-0.02,0.443-0.058c0.119-0.038,0.213-0.104,0.273-0.194c0.064-0.094,0.096-0.22,0.096-0.382
			c0-0.124-0.025-0.235-0.075-0.331c-0.051-0.097-0.12-0.168-0.212-0.215C20.795,21.376,20.626,21.352,20.375,21.352"/>
		<path fill="#FFFFFF" d="M27.389,23.354v0.873c0,0.117-0.012,0.207-0.029,0.277c-0.017,0.069-0.049,0.133-0.098,0.189
			c-0.048,0.055-0.104,0.109-0.182,0.16c-0.215,0.149-0.419,0.258-0.619,0.326c-0.197,0.065-0.414,0.102-0.648,0.102
			c-0.27,0-0.521-0.053-0.742-0.16c-0.225-0.107-0.416-0.266-0.572-0.469c-0.159-0.207-0.28-0.453-0.366-0.745
			c-0.086-0.29-0.126-0.616-0.126-0.974c0-0.354,0.04-0.68,0.124-0.972c0.079-0.294,0.204-0.541,0.362-0.749
			c0.158-0.204,0.354-0.357,0.584-0.471c0.229-0.106,0.484-0.161,0.775-0.161c0.239,0,0.451,0.04,0.637,0.125
			c0.184,0.08,0.332,0.183,0.445,0.31c0.114,0.125,0.2,0.254,0.258,0.393c0.061,0.139,0.086,0.261,0.086,0.367
			c0,0.115-0.029,0.214-0.101,0.293c-0.063,0.084-0.146,0.123-0.237,0.123c-0.053,0-0.103-0.012-0.148-0.045
			c-0.046-0.028-0.087-0.074-0.119-0.129c-0.09-0.177-0.165-0.313-0.227-0.402c-0.061-0.092-0.144-0.166-0.247-0.229
			c-0.104-0.063-0.237-0.095-0.397-0.095c-0.169,0-0.314,0.037-0.445,0.108c-0.133,0.072-0.242,0.179-0.338,0.319
			c-0.09,0.142-0.158,0.313-0.209,0.513c-0.05,0.203-0.074,0.431-0.074,0.675c0,0.532,0.095,0.942,0.283,1.229
			c0.192,0.285,0.459,0.432,0.801,0.432c0.168,0,0.32-0.028,0.47-0.086c0.144-0.055,0.292-0.135,0.444-0.237V23.51h-0.559
			c-0.133,0-0.234-0.025-0.302-0.078c-0.067-0.049-0.103-0.14-0.103-0.263c0-0.101,0.026-0.185,0.084-0.251
			c0.058-0.064,0.135-0.102,0.234-0.102H26.9c0.102,0,0.185,0.012,0.256,0.035c0.066,0.024,0.126,0.073,0.169,0.153
			C27.366,23.082,27.389,23.199,27.389,23.354"/>
		<path fill="#FFFFFF" d="M29.632,20.581c0.368,0,0.687,0.097,0.946,0.284c0.263,0.191,0.463,0.469,0.6,0.818
			c0.137,0.354,0.202,0.768,0.202,1.241c0,0.353-0.037,0.669-0.11,0.955c-0.076,0.291-0.186,0.538-0.334,0.75
			c-0.146,0.211-0.33,0.371-0.547,0.483c-0.218,0.113-0.463,0.167-0.742,0.167c-0.278,0-0.526-0.058-0.744-0.173
			c-0.221-0.113-0.403-0.273-0.551-0.484c-0.145-0.207-0.256-0.458-0.332-0.751s-0.112-0.612-0.112-0.953
			c0-0.349,0.038-0.672,0.118-0.959c0.078-0.292,0.189-0.539,0.34-0.746c0.148-0.203,0.33-0.358,0.543-0.471
			C29.117,20.636,29.359,20.581,29.632,20.581 M30.65,22.918c0-0.33-0.039-0.617-0.125-0.863c-0.082-0.248-0.205-0.428-0.359-0.553
			c-0.157-0.126-0.335-0.189-0.534-0.189c-0.142,0-0.276,0.037-0.397,0.104c-0.123,0.069-0.228,0.171-0.314,0.304
			c-0.089,0.131-0.156,0.299-0.208,0.504c-0.05,0.205-0.078,0.439-0.078,0.693c0,0.26,0.028,0.492,0.078,0.701
			s0.123,0.379,0.215,0.52c0.093,0.137,0.2,0.238,0.317,0.309c0.122,0.068,0.254,0.101,0.398,0.101c0.186,0,0.352-0.057,0.506-0.176
			c0.154-0.117,0.275-0.299,0.367-0.545C30.607,23.58,30.65,23.277,30.65,22.918"/>
		<path fill="#FFFFFF" d="M27.771,26.453c-0.306,0.048-0.543,0.007-0.561,0.002c-0.104-0.02-0.172-0.121-0.154-0.227
			c0.019-0.104,0.112-0.179,0.217-0.158c0.008,0,0.727,0.127,1.152-0.404c0.068-0.082,0.188-0.093,0.266-0.021
			c0.08,0.07,0.091,0.193,0.024,0.274C28.434,26.27,28.068,26.406,27.771,26.453"/>
	</g>
	<g>
		<path fill="#FFFFFF" d="M25.158,16.848h-0.916c-0.278,0-0.329-0.02-0.329-0.154l0.003-0.451c0-0.104-0.084-0.19-0.188-0.19h-0.043
			c-0.103,0-0.187,0.081-0.188,0.185l-0.013,0.463c0,0.422,0.147,0.537,0.726,0.537h0.91c0.44,0,0.614-0.023,0.614-0.592
			c0-0.117-0.148-0.207-0.266-0.256c-0.015-0.006-0.029,0.006-0.029,0.021C25.416,16.791,25.371,16.848,25.158,16.848"/>
		<path fill="#FFFFFF" d="M26.57,15.785c-0.025-0.055-0.096-0.119-0.184-0.186c-0.205-0.16-0.469-0.304-0.703-0.429h0.166
			c0.211,0,0.383-0.172,0.383-0.384v-0.99c0-0.029-0.023-0.056-0.056-0.056h-1.341c-0.031,0-0.057-0.024-0.057-0.054v-0.174
			c0-0.031,0.025-0.054,0.057-0.054l1.487,0.015c0.436,0,0.403-0.445,0.403-0.445s-0.096,0.061-0.531,0.061h-1.416v-0.048
			c0-0.124-0.098-0.224-0.221-0.224c-0.125,0-0.225,0.1-0.225,0.224v0.048c0,0-1.266-0.003-1.507,0
			c-0.359,0.005-0.45,0.428-0.45,0.428s0.158-0.058,0.527-0.058h1.375c0.029,0,0.055,0.022,0.055,0.056v0.172
			c0,0.028-0.023,0.055-0.055,0.055h-0.985c-0.211,0-0.383,0.172-0.383,0.383v0.992c0,0.029,0.024,0.054,0.056,0.054h1.346
			c0.013,0,0.021,0.011,0.021,0.022v0.326c-0.471,0.004-0.916,0-1.297,0c-0.217,0.002-0.367,0.119-0.367,0.336
			c0.479-0.004,2.949,0,3.445,0c0.001,0,0.002,0,0.002,0c0.134,0.095,0.259,0.194,0.324,0.274c0.012,0.015,0.035,0.015,0.049,0.001
			c0.039-0.047,0.111-0.145,0.102-0.259c0-0.001,0.001-0.002,0.001-0.004c0,0,0,0-0.001-0.001
			C26.591,15.842,26.586,15.814,26.57,15.785 M24.335,14.848c0,0.02-0.015,0.033-0.033,0.033h-0.946
			c-0.02,0-0.032-0.015-0.032-0.033v-0.219c0-0.02,0.014-0.035,0.032-0.035h0.946c0.019,0,0.033,0.016,0.033,0.035V14.848z
			 M24.335,14.281c0,0.018-0.015,0.033-0.032,0.033h-0.947c-0.02,0-0.032-0.017-0.032-0.033v-0.104c0-0.079,0.063-0.145,0.146-0.145
			h0.834c0.018,0,0.033,0.014,0.033,0.03L24.335,14.281L24.335,14.281z M24.781,14.033h0.992c0.017,0,0.029,0.013,0.029,0.031v0.218
			c0,0.017-0.014,0.032-0.029,0.032h-0.961c-0.019,0-0.031-0.015-0.031-0.032V14.033z M24.781,14.625
			c0-0.018,0.014-0.031,0.031-0.031h0.961c0.017,0,0.029,0.014,0.029,0.031v0.082c-0.011,0.098-0.09,0.174-0.189,0.174h-0.803
			c-0.018,0-0.031-0.015-0.031-0.031L24.781,14.625L24.781,14.625z M24.781,15.521v-0.328c0-0.012,0.01-0.021,0.021-0.021h0.629
			l-0.014,0.018c-0.055,0.068-0.033,0.168,0.043,0.209c0.082,0.041,0.148,0.082,0.219,0.123H24.781L24.781,15.521z"/>
		<path fill="#FFFFFF" d="M23.064,16.916c0.066-0.146,0.129-0.301,0.18-0.447c0.031-0.096-0.016-0.199-0.105-0.24l-0.015-0.006
			c-0.104-0.047-0.226,0.002-0.263,0.108c-0.088,0.249-0.211,0.509-0.354,0.696c-0.008,0.01-0.004,0.024,0.008,0.031
			C22.709,17.156,22.967,17.109,23.064,16.916"/>
		<circle fill="#FFFFFF" cx="24.764" cy="16.333" r="0.292"/>
		<circle fill="#FFFFFF" cx="26.316" cy="16.728" r="0.304"/>
	</g>
	<g>
		<path fill="#FFFFFF" d="M28.328,16.257c0.033,0,0.063,0.022,0.072,0.054c0.088,0.283,0.119,0.482,0.068,0.611
			c-0.08,0.204-0.349,0.178-0.349,0.178c0.04-0.172-0.015-0.522-0.079-0.746c-0.014-0.049,0.021-0.097,0.074-0.097H28.328z"/>
		<path fill="#FFFFFF" d="M27.068,17.175c0.086,0.054,0.179,0.062,0.279,0.054c0.313-0.021,0.446-0.481,0.559-0.877
			c0.013-0.047-0.022-0.095-0.072-0.095h-0.253c-0.033,0-0.063,0.023-0.069,0.056C27.419,16.65,27.268,16.95,27.068,17.175"/>
		<path fill="#FFFFFF" d="M31.587,16.15l-0.239,0.053c-0.1,0.023-0.199,0.035-0.302,0.035H30.96V15.28
			c0-0.173-0.137-0.313-0.312-0.313l-0.58-0.001v-0.24l0.783,0.002c0.092,0,0.164-0.076,0.164-0.166v-0.015
			c0-0.092-0.072-0.167-0.164-0.167h-0.285v-0.266l0.244-0.001c0.09,0,0.166-0.074,0.166-0.166c0-0.091-0.074-0.165-0.166-0.165
			l-0.244,0.001V13.54c0,0,0.363-0.005,0.533-0.028c0.248-0.033,0.346-0.227,0.349-0.404l-0.134,0.033
			c-0.142,0.035-0.269,0.043-0.428,0.049l-0.32,0.004l0.002-0.207c0-0.092-0.075-0.166-0.168-0.166h-0.055
			c-0.092,0-0.166,0.074-0.166,0.166v0.205h-0.595v-0.207c0-0.09-0.073-0.164-0.166-0.164h-0.05c-0.092,0-0.164,0.072-0.164,0.164
			v0.207h-0.371c-0.091,0-0.166,0.074-0.166,0.166v0.017c0,0.091,0.074,0.165,0.166,0.165h0.37v0.246l-0.257,0.003
			c-0.092,0-0.165,0.073-0.165,0.164c0,0.092,0.073,0.166,0.165,0.166l0.255-0.002v0.266h-0.368c-0.091,0-0.166,0.074-0.166,0.166
			v0.015c0,0.092,0.074,0.166,0.166,0.166l0.852,0.002v0.24l-0.779-0.002c-0.041,0-0.075,0.034-0.075,0.077l-0.001,1.19v0.343v0.463
			c0,0.104,0.086,0.192,0.193,0.192c0.105,0,0.191-0.088,0.191-0.192v-0.463l1.344,0.001v0.2c0,0.061-0.015,0.079-0.078,0.079
			c-0.056,0.005-0.254,0.01-0.463,0.01c-0.037,0-0.065,0.031-0.063,0.068c0.019,0.222,0.114,0.293,0.247,0.293
			c0.32,0,0.428,0.023,0.566-0.043c0.135-0.063,0.191-0.196,0.191-0.401V16.58c0,0,0.152,0.01,0.27-0.021
			C31.494,16.486,31.587,16.335,31.587,16.15 M29.686,16.236h-0.469v-0.318h0.469V16.236z M29.688,15.611l-0.471-0.002v-0.295h0.471
			V15.611z M29.586,13.538l0.596,0.001v0.246l-0.596-0.001V13.538z M29.586,14.382v-0.265h0.596v0.266L29.586,14.382z
			 M30.561,16.238h-0.494l0.002-0.32h0.492V16.238z M30.561,15.418v0.193h-0.492v-0.297h0.391c0,0,0.012,0,0.031,0
			C30.57,15.314,30.561,15.418,30.561,15.418"/>
		<path fill="#FFFFFF" d="M28.534,13.002h-0.96c-0.2,0-0.362,0.162-0.362,0.361l-0.001,2.766c0,0.02,0.014,0.032,0.03,0.032
			l0.944,0.001c0.207,0,0.375-0.17,0.375-0.378l0.004-2.749C28.564,13.018,28.552,13.002,28.534,13.002z M27.889,15.887
			c-0.199,0-0.361-0.16-0.361-0.361c0-0.198,0.162-0.359,0.361-0.359s0.36,0.161,0.36,0.359
			C28.249,15.727,28.088,15.887,27.889,15.887z M27.889,14.943c-0.199,0-0.361-0.162-0.361-0.361s0.162-0.361,0.361-0.361
			s0.36,0.162,0.36,0.361S28.088,14.943,27.889,14.943z M27.889,13.998c-0.199,0-0.361-0.16-0.361-0.359s0.162-0.361,0.361-0.361
			s0.36,0.162,0.36,0.361S28.088,13.998,27.889,13.998z"/>
	</g>
	<g>
		<path fill="#FFFFFF" d="M21.863,13.07c0,0.037-0.002,0.086-0.006,0.117c-0.035,0.873-0.082,1.225-0.186,1.354
			c-0.079,0.095-0.162,0.13-0.288,0.146c-0.106,0.01-0.349,0.014-0.554,0.004c-0.234,0-0.248-0.369-0.016-0.369
			c0.197-0.004,0.299-0.006,0.363-0.006c0.064-0.002,0.108-0.01,0.141-0.051c0.057-0.07,0.086-0.285,0.115-0.828
			c0-0.014-0.011-0.023-0.022-0.023H20.84c-0.008,0-0.013,0.006-0.013,0.012c-0.005,0.686-0.198,1.197-0.962,1.207
			c-0.01,0-0.014-0.01-0.008-0.018c0.031-0.041,0.049-0.079,0.06-0.125c0.013-0.063,0.017-0.129,0.017-0.152
			c0-0.006,0.006-0.012,0.012-0.012c0.313-0.008,0.47-0.395,0.474-0.9c0-0.006-0.007-0.012-0.015-0.012h-0.369
			c-0.108,0-0.197-0.091-0.197-0.199c0-0.109,0.089-0.197,0.197-0.197c0,0,1.771,0,1.797,0C21.87,13.018,21.863,13.07,21.863,13.07"
			/>
		<path fill="#FFFFFF" d="M19.786,14.331c0,0,0.017,0.415-0.382,0.415h-0.35c-0.031,0-0.056,0.025-0.056,0.056v0.528
			c0,0.029,0.024,0.054,0.056,0.054h0.68c0,0,0.021,0.406-0.348,0.406h-0.334c-0.029,0-0.054,0.024-0.054,0.055v0.704
			c0,0.146,0.108,0.27,0.253,0.289c0.24,0.027,0.534,0.005,0.84,0.005c0.278,0.005,1.914,0,1.963,0c0,0.3-0.293,0.394-0.576,0.394
			c0,0-1.502,0.003-2.479,0.003c-0.359,0-0.805-0.255-0.82-0.563c0-0.013-0.016-0.016-0.021-0.004
			c-0.207,0.516-0.505,0.52-0.636,0.494c0.236-0.458,0.459-1.1,0.453-1.889c0-0.105,0.086-0.191,0.191-0.189
			c0.104,0,0.188,0.084,0.188,0.188c0,0.102-0.025,0.615-0.035,0.721c-0.037,0.402,0.275,0.566,0.275,0.561l0.008-1.755
			c0-0.03-0.024-0.056-0.055-0.056h-0.755c0,0,0.017-0.415,0.479-0.415h0.274c0.029,0,0.056-0.024,0.056-0.056v-0.438
			c0-0.029-0.025-0.055-0.056-0.055h-0.346h-0.315h-0.092c0-0.225,0.182-0.404,0.404-0.405l0,0h0.348
			c0.03,0,0.055-0.024,0.055-0.056v-0.309c0-0.111,0.088-0.199,0.197-0.199c0.108,0,0.197,0.088,0.197,0.199v0.309
			c0,0.031,0.023,0.056,0.055,0.056h0.266v-0.002h0.406c0,0.226-0.182,0.408-0.406,0.408h-0.266c-0.029,0-0.055,0.024-0.055,0.055
			v0.437c0,0.031,0.023,0.057,0.055,0.057L19.786,14.331"/>
		<path fill="#FFFFFF" d="M21.708,15.01h-1.235c-0.272,0-0.494,0.223-0.494,0.496v1.002c0,0.029,0.021,0.053,0.053,0.053h1.236
			c0.273,0,0.496-0.222,0.496-0.496v-1C21.764,15.034,21.738,15.01,21.708,15.01z M20.87,16.378
			c-0.945-0.351-0.675-0.968-0.394-1.052c0.244-0.072,0.394,0.145,0.394,0.145s0.146-0.205,0.394-0.145
			C21.559,15.4,21.816,16.047,20.87,16.378z"/>
	</g>
	<path fill="#E24740" d="M17.158,14.951c0.171-0.499,0.277-1.15,0.008-1.742c-0.084-0.184-0.191-0.324-0.29-0.43
		c0.036-0.211,0.054-0.424,0.054-0.643c0-0.191-0.025-0.375-0.046-0.521l-0.013-0.088c-0.034-0.287-0.139-0.558-0.292-0.787
		c0.001-0.002,0.001-0.004,0.001-0.004c0.173-0.619,0.172-1.269-0.002-1.983c-0.197-0.803-0.705-1.328-1.125-1.694l-0.061-0.054
		c-0.154-0.135-0.345-0.303-0.582-0.456c-0.271-0.171-0.557-0.313-0.853-0.421c-0.293-0.106-0.646-0.221-1.041-0.258
		c-0.451-0.042-0.849-0.036-1.313,0.024c-0.047,0.008-0.094,0.016-0.141,0.026l-0.044,0.011c-0.201,0.047-0.394,0.09-0.548,0.107
		c-0.012-0.021-0.021-0.041-0.029-0.063c-0.041-0.166-0.07-0.332-0.09-0.49C10.688,4.939,10.57,4.453,10.395,4
		c-0.024-0.064-0.049-0.129-0.074-0.194c-0.098-0.263-0.209-0.56-0.372-0.863C9.713,2.505,9.506,2.168,9.232,1.778
		c-0.28-0.398-0.688-0.76-0.977-0.966c-0.51-0.364-1.082-0.616-1.701-0.749C6.359,0.021,6.15,0,5.936,0
		C5.204,0,4.581,0.238,4.346,0.34C4.071,0.461,3.844,0.607,3.659,0.725c-0.644,0.41-1.086,0.989-1.282,1.676
		C2.23,2.921,2.16,3.734,2.666,4.65C2.701,4.713,2.734,4.776,2.77,4.839C2.817,4.93,2.867,5.022,2.918,5.116
		c0.073,0.127,0.146,0.223,0.199,0.29l0.07,0.095C3.268,5.611,3.35,5.72,3.439,5.826C3.552,5.96,3.667,6.093,3.781,6.225
		C3.885,6.346,3.99,6.466,4.094,6.589c0.091,0.108,0.182,0.222,0.278,0.353c0.112,0.15,0.229,0.307,0.323,0.453
		C4.717,7.43,4.726,7.451,4.726,7.451l0,0c0.218,0.644,0.315,1.177,0.306,1.681C5.03,9.23,5.027,9.331,5.021,9.432
		c-0.392,0.084-0.762,0.293-1.064,0.611c-0.309,0.322-0.529,0.716-0.653,1.171c-0.098,0.356-0.183,0.681-0.235,1.044
		c-0.043,0.295-0.084,0.615-0.09,0.965c0,0.021,0,0.043,0,0.064L3,14.047c0,0.032,0.003,0.064,0.006,0.096
		c0.016,0.174,0.064,0.545,0.109,0.76c0.084,0.398,0.162,0.731,0.249,1.048c0.081,0.292,0.18,0.573,0.294,0.834
		c0.124,0.282,0.27,0.541,0.396,0.759c0.35,0.596,0.838,1.088,1.49,1.507c0.024,0.017,0.047,0.031,0.067,0.048
		c0.242,0.168,0.543,0.357,1.06,0.471c0.149,0.033,0.351,0.07,0.588,0.07c0.118,0,0.235-0.011,0.353-0.029
		c0.297-0.047,0.574-0.176,0.811-0.359c0.301,0.182,0.604,0.326,0.914,0.439c0.34,0.125,0.688,0.188,1.031,0.188
		c0.105,0,0.212-0.007,0.311-0.017c0.204-0.021,0.398-0.082,0.579-0.17c0.114,0.029,0.22,0.051,0.304,0.065l0.096,0.019
		c0.078,0.016,0.21,0.043,0.775,0.043c0.09,0,0.15-0.006,0.17-0.006c0.326-0.03,0.525-0.061,0.822-0.109
		c0.27-0.045,0.572-0.139,0.922-0.283c0.111-0.047,0.209-0.095,0.305-0.145c0.029-0.016,0.06-0.03,0.101-0.049
		c0.142-0.063,0.283-0.138,0.437-0.229c0.646-0.39,1.137-0.835,1.496-1.358c0.207-0.305,0.334-0.613,0.437-0.885
		c0.091-0.24,0.133-0.463,0.164-0.625l0.014-0.076C17.373,15.655,17.318,15.275,17.158,14.951z"/>
	<g>
		<path fill="#FFFFFF" d="M4.453,13.244c0.005-0.264,0.037-0.516,0.074-0.775c0.042-0.293,0.119-0.582,0.198-0.869
			c0.055-0.199,0.146-0.384,0.294-0.537c0.173-0.182,0.347-0.233,0.502-0.17c0.215,0.086,0.33,0.367,0.352,0.625
			c0.008,0.104,0.055,0.156,0.148,0.172c0.086,0.017,0.174-0.043,0.19-0.129c0.063-0.295,0.146-0.588,0.179-0.886
			c0.057-0.503,0.104-1.011,0.114-1.516C6.521,8.41,6.361,7.684,6.12,6.977C6.075,6.845,6.012,6.717,5.936,6.6
			C5.816,6.414,5.684,6.236,5.553,6.059C5.446,5.914,5.334,5.773,5.218,5.636C5.002,5.381,4.78,5.13,4.565,4.875
			C4.468,4.761,4.382,4.637,4.292,4.518C4.263,4.476,4.229,4.436,4.204,4.393C4.12,4.243,4.04,4.09,3.957,3.939
			C3.76,3.581,3.681,3.208,3.796,2.805C3.901,2.436,4.136,2.171,4.45,1.97c0.157-0.101,0.315-0.203,0.486-0.278
			C5.239,1.56,5.795,1.41,6.247,1.506C6.665,1.595,7.046,1.76,7.398,2.012c0.218,0.155,0.478,0.402,0.625,0.613
			C8.27,2.977,8.443,3.261,8.646,3.64C8.799,3.923,8.902,4.233,9.02,4.536c0.142,0.362,0.223,0.738,0.269,1.125
			c0.026,0.237,0.071,0.473,0.131,0.705c0.035,0.14,0.104,0.272,0.168,0.405C9.633,6.869,9.675,6.977,9.749,7.05
			c0.132,0.13,0.274,0.25,0.433,0.345c0.107,0.066,0.243,0.104,0.37,0.116c0.425,0.042,0.837-0.059,1.246-0.153
			c0.362-0.047,0.654-0.051,0.979-0.02c0.229,0.021,0.457,0.096,0.677,0.176c0.194,0.071,0.388,0.168,0.563,0.279
			c0.166,0.105,0.313,0.244,0.463,0.375c0.297,0.259,0.568,0.546,0.664,0.936c0.1,0.404,0.131,0.821,0.016,1.234
			c-0.104,0.371-0.244,0.729-0.473,1.039c-0.271,0.374-0.551,0.738-0.945,1.004c-0.254,0.17-0.51,0.329-0.79,0.447
			c-0.128,0.055-0.265,0.086-0.399,0.125c-0.137,0.039-0.271,0.095-0.412,0.109c-0.525,0.063-1.048,0.136-1.584,0.07
			c-0.424-0.053-0.822-0.113-1.172-0.388c-0.246-0.194-0.441-0.423-0.521-0.72c-0.163-0.588-0.006-1.129,0.328-1.612
			c0.187-0.267,0.398-0.517,0.677-0.707c0.292-0.201,0.6-0.356,0.944-0.435c0.168-0.037,0.342-0.045,0.515-0.063
			c0.021-0.003,0.043-0.007,0.063-0.015c0,0,0.183-0.277-0.703-0.168c-0.121,0.015-0.213,0.023-0.332,0.047
			c-0.318,0.06-0.638,0.211-0.857,0.345c-0.1,0.06-0.184,0.144-0.279,0.212c-0.412,0.299-0.691,0.696-0.832,1.182
			c-0.063,0.221-0.076,0.455-0.098,0.685c-0.021,0.255,0.086,0.485,0.184,0.708c0.16,0.365,0.445,0.637,0.75,0.885
			c0.103,0.084,0.158,0.191,0.146,0.329c-0.017,0.172-0.033,0.345-0.039,0.519c-0.017,0.438,0.118,0.828,0.425,1.146
			c0.126,0.131,0.184,0.277,0.184,0.455c-0.002,0.104,0.02,0.205,0.026,0.309c0.021,0.301,0.14,0.557,0.363,0.756
			c0.099,0.088,0.133,0.192,0.122,0.316c-0.012,0.135-0.034,0.271-0.036,0.406c-0.007,0.273,0.116,0.504,0.272,0.719
			c0.107,0.15,0.023,0.33-0.16,0.35c-0.233,0.025-0.455-0.008-0.68-0.09c-0.346-0.126-0.662-0.305-0.959-0.514
			c-0.367-0.26-0.719-0.541-0.996-0.9c-0.115-0.147-0.215-0.311-0.324-0.465c-0.047-0.064-0.096-0.143-0.192-0.109
			c-0.087,0.031-0.132,0.152-0.092,0.222c0.077,0.137,0.151,0.276,0.243,0.403c0.173,0.24,0.205,0.447,0.221,0.728
			c0.011,0.188-0.186,0.455-0.37,0.483c-0.134,0.021-0.265,0-0.385-0.025c-0.347-0.075-0.442-0.188-0.646-0.318
			c-0.41-0.263-0.767-0.588-1.017-1.013c-0.115-0.196-0.227-0.396-0.316-0.604c-0.09-0.203-0.164-0.418-0.223-0.633
			c-0.087-0.315-0.16-0.638-0.229-0.959c-0.029-0.141-0.07-0.449-0.084-0.592L4.453,13.244z"/>
		<path fill="#FFFFFF" d="M10.643,15.161c-0.172-0.021-0.41-0.095-0.55-0.188c-0.272-0.186-0.448-0.455-0.489-0.791
			C9.59,14.075,9.627,13.96,9.645,13.85c0.043-0.285,0.188-0.396,0.475-0.358c0.097,0.013,0.191,0.055,0.29,0.063
			c0.577,0.053,1.153,0.063,1.728-0.064c0.389-0.086,0.764-0.215,1.117-0.393c0.146-0.074,0.29-0.16,0.428-0.255
			c0.18-0.124,0.375-0.239,0.522-0.396c0.264-0.277,0.499-0.58,0.743-0.875c0.068-0.084,0.144-0.152,0.261-0.129
			c0.099,0.021,0.185,0.137,0.2,0.262c0.015,0.128,0.046,0.311,0.047,0.439c0,0.418-0.102,0.771-0.275,1.129
			c-0.189,0.388-0.412,0.678-0.732,0.959c-0.195,0.174-0.436,0.299-0.664,0.43c-0.16,0.09-0.328,0.17-0.502,0.225
			c-0.24,0.076-0.432,0.162-0.68,0.205C12.035,15.188,11.129,15.215,10.643,15.161z"/>
		<path fill="#FFFFFF" d="M12.188,16.744c-0.187,0.021-0.375,0.05-0.562,0.05c-0.438,0-0.839-0.118-1.132-0.468
			c-0.129-0.156-0.294-0.296-0.287-0.531c0.004-0.139,0.08-0.254,0.219-0.275c0.229-0.033,0.35-0.022,0.6-0.022
			c0.065,0,0.453,0.013,0.519,0.008c0.383-0.028,0.54-0.051,0.92-0.104c0.287-0.039,0.574-0.104,0.849-0.194
			c0.256-0.084,0.498-0.214,0.739-0.334c0.164-0.08,0.33-0.163,0.478-0.271c0.344-0.246,0.713-0.559,0.959-0.824
			c0.076-0.082,0.173-0.1,0.265-0.031c0.026,0.02,0.058,0.042,0.069,0.07c0.121,0.268-0.115,0.896-0.277,1.14
			c-0.219,0.321-0.458,0.599-0.758,0.813c-0.393,0.283-0.755,0.488-1.176,0.656c-0.084,0.033-0.229,0.084-0.316,0.104
			C13.293,16.529,12.781,16.682,12.188,16.744z"/>
		<path fill="#FFFFFF" d="M12.466,18.34c-0.032,0.004-0.483-0.006-0.515-0.012c-0.139-0.029-0.303-0.051-0.438-0.1
			c-0.148-0.054-0.281-0.121-0.41-0.207c-0.256-0.17-0.34-0.445-0.381-0.73c-0.029-0.199,0.144-0.316,0.33-0.248
			c0.146,0.055,0.299,0.096,0.448,0.139c0.248,0.072,0.496,0.099,0.758,0.088c0.411-0.02,0.808-0.092,1.187-0.229
			c0.308-0.111,0.606-0.254,0.885-0.436c0.427-0.279,0.838-0.574,1.148-0.987c0.026-0.034,0.055-0.076,0.092-0.095
			c0.043-0.02,0.104-0.034,0.142-0.019c0.124,0.05,0.161,0.125,0.136,0.257c-0.031,0.157-0.057,0.319-0.111,0.469
			c-0.075,0.197-0.157,0.399-0.276,0.574c-0.269,0.391-0.634,0.682-1.038,0.928c-0.087,0.053-0.178,0.102-0.271,0.145
			c-0.137,0.059-0.234,0.121-0.371,0.178c-0.188,0.078-0.413,0.16-0.604,0.191C12.902,18.292,12.741,18.314,12.466,18.34z"/>
	</g>
</g>
</svg>
