<?xml version="1.0" encoding="utf-8"?>
<!-- Generator: Adobe Illustrator 16.0.0, SVG Export Plug-In . SVG Version: 6.00 Build 0)  -->
<!DOCTYPE svg PUBLIC "-//W3C//DTD SVG 1.1//EN" "http://www.w3.org/Graphics/SVG/1.1/DTD/svg11.dtd">
<svg version="1.1" id="圖層_1" xmlns="http://www.w3.org/2000/svg" xmlns:xlink="http://www.w3.org/1999/xlink" x="0px" y="0px"
	 width="62px" height="62px" viewBox="0 0 62 62" enable-background="new 0 0 62 62" xml:space="preserve">
<g>
	<path fill="#E24740" d="M59.327,50.666C59.327,56.925,54.073,62,47.592,62H14.743C8.262,62,3.007,56.925,3.007,50.666v-33.78
		c0-6.259,5.255-11.333,11.736-11.333h32.849c6.481,0,11.735,5.074,11.735,11.333V50.666z"/>
	<path fill-rule="evenodd" clip-rule="evenodd" fill="#FFFFFF" d="M41.172,12.539c2.332-0.005,5.338,0.01,6.517,0.115
		c2.657,0.239,5.137,1.242,5.865,4.584l0.605,1.821l-0.708-3.236c-0.711-3.344-2.567-4.439-5.581-4.611
		c-1.378-0.079-5.312,0.037-7.541,0.113C40.703,11.681,40.992,12.09,41.172,12.539z"/>
	<path fill-rule="evenodd" clip-rule="evenodd" fill="#FFFFFF" d="M54.042,45.129c-1.553,6.099-18.702,7.466-22.701,7.625
		l-11.98,0.649c-5.204-0.052-7.84-2.507-9.039-5.777c-0.594,0.345-1.25,0.592-1.948,0.72c0.996,3.872,3.705,6.962,9.815,7.01
		l13.316-0.979c4.167-0.166,19.846-1.703,22.402-6.571c0.834-1.588,0.523-3.956,0.523-3.956S54.125,44.804,54.042,45.129z"/>
	<circle fill-rule="evenodd" clip-rule="evenodd" fill="#FFFFFF" cx="17.549" cy="57.606" r="1.517"/>
	<circle fill-rule="evenodd" clip-rule="evenodd" fill="#FFFFFF" cx="48.287" cy="53.92" r="1.518"/>
	<g>
		<path fill="#FFFFFF" d="M13.551,41.058c0,0.477-0.1,0.901-0.292,1.275c-0.194,0.379-0.479,0.674-0.851,0.883
			c-0.375,0.219-0.818,0.323-1.331,0.323c-0.614,0-1.12-0.145-1.521-0.438c-0.283-0.206-0.511-0.489-0.689-0.837
			c-0.174-0.354-0.266-0.691-0.266-1.023c0-0.194,0.055-0.359,0.159-0.493c0.106-0.14,0.24-0.212,0.406-0.212
			c0.134,0,0.247,0.06,0.336,0.163c0.092,0.109,0.171,0.265,0.235,0.475c0.083,0.25,0.166,0.457,0.259,0.627
			c0.092,0.168,0.22,0.301,0.39,0.412c0.166,0.109,0.385,0.164,0.655,0.164c0.374,0,0.681-0.107,0.912-0.328
			c0.232-0.216,0.35-0.495,0.35-0.82c0-0.259-0.065-0.466-0.19-0.632c-0.124-0.162-0.287-0.285-0.485-0.375
			c-0.201-0.078-0.468-0.169-0.801-0.267c-0.445-0.132-0.824-0.288-1.126-0.466c-0.3-0.174-0.541-0.415-0.715-0.72
			c-0.176-0.304-0.264-0.678-0.264-1.133c0-0.428,0.093-0.816,0.277-1.146c0.187-0.338,0.457-0.592,0.813-0.77
			c0.354-0.184,0.767-0.272,1.247-0.272c0.383,0,0.716,0.06,0.992,0.178c0.279,0.121,0.509,0.277,0.694,0.476
			c0.183,0.198,0.321,0.41,0.404,0.624c0.086,0.219,0.126,0.426,0.126,0.636c0,0.189-0.051,0.358-0.157,0.508
			c-0.11,0.147-0.241,0.232-0.399,0.232c-0.146,0-0.253-0.048-0.328-0.14c-0.075-0.092-0.156-0.239-0.244-0.441
			c-0.114-0.301-0.25-0.534-0.409-0.698c-0.159-0.166-0.412-0.243-0.765-0.243c-0.324,0-0.586,0.089-0.788,0.266
			C9.989,37.026,9.89,37.24,9.89,37.49c0,0.16,0.031,0.294,0.1,0.403c0.068,0.113,0.163,0.214,0.28,0.299
			c0.12,0.082,0.24,0.146,0.362,0.189c0.12,0.049,0.324,0.115,0.6,0.203c0.355,0.103,0.67,0.221,0.954,0.346
			c0.286,0.124,0.528,0.272,0.729,0.451c0.198,0.176,0.354,0.404,0.465,0.676C13.494,40.326,13.551,40.665,13.551,41.058"/>
		<path fill="#FFFFFF" d="M14.626,40.174v-3.766c0-0.32,0.058-0.562,0.173-0.718c0.112-0.162,0.265-0.245,0.451-0.245
			c0.197,0,0.353,0.083,0.468,0.245c0.114,0.156,0.172,0.397,0.172,0.718v3.851c0,0.435,0.034,0.798,0.116,1.095
			c0.078,0.292,0.218,0.52,0.415,0.687c0.197,0.156,0.474,0.239,0.831,0.239c0.493,0,0.839-0.167,1.046-0.495
			c0.203-0.329,0.303-0.828,0.303-1.498v-3.878c0-0.325,0.058-0.569,0.171-0.722c0.115-0.16,0.262-0.24,0.453-0.24
			c0.191,0,0.344,0.08,0.462,0.24c0.117,0.153,0.175,0.397,0.175,0.722v3.766c0,0.609-0.046,1.122-0.141,1.529
			c-0.095,0.408-0.273,0.77-0.536,1.079c-0.229,0.263-0.493,0.451-0.79,0.576c-0.302,0.118-0.653,0.18-1.054,0.18
			c-0.479,0-0.892-0.066-1.235-0.195c-0.348-0.132-0.628-0.328-0.846-0.602c-0.216-0.269-0.376-0.621-0.478-1.049
			C14.679,41.267,14.626,40.761,14.626,40.174"/>
		<path fill="#FFFFFF" d="M23.641,40.362h-1.153v2.211c0,0.321-0.061,0.56-0.178,0.72c-0.118,0.165-0.271,0.245-0.452,0.245
			c-0.191,0-0.345-0.08-0.458-0.245c-0.119-0.159-0.175-0.395-0.175-0.709v-6.031c0-0.351,0.063-0.598,0.193-0.751
			c0.125-0.143,0.33-0.221,0.606-0.221h1.616c0.478,0,0.844,0.044,1.104,0.137c0.254,0.091,0.474,0.241,0.662,0.447
			c0.186,0.203,0.326,0.453,0.422,0.755c0.097,0.302,0.145,0.636,0.145,1.005c0,0.796-0.197,1.403-0.589,1.818
			C24.994,40.15,24.414,40.362,23.641,40.362 M23.336,36.771h-0.849v2.389h0.849c0.295,0,0.542-0.033,0.745-0.118
			c0.198-0.078,0.351-0.203,0.455-0.382c0.106-0.178,0.158-0.41,0.158-0.698c0-0.346-0.083-0.628-0.241-0.841
			C24.269,36.891,23.896,36.771,23.336,36.771"/>
		<path fill="#FFFFFF" d="M31.126,36.803h-2.841v1.919h2.617c0.191,0,0.338,0.058,0.431,0.166c0.093,0.109,0.141,0.252,0.141,0.43
			c0,0.179-0.048,0.321-0.14,0.435c-0.094,0.111-0.24,0.167-0.433,0.167h-2.617v2.227h2.939c0.196,0,0.348,0.056,0.446,0.168
			c0.103,0.117,0.152,0.274,0.152,0.467c0,0.183-0.05,0.33-0.152,0.451c-0.099,0.116-0.25,0.177-0.446,0.177h-3.426
			c-0.275,0-0.473-0.081-0.595-0.236c-0.118-0.15-0.18-0.4-0.18-0.741v-5.879c0-0.229,0.03-0.417,0.084-0.562
			c0.053-0.143,0.135-0.247,0.251-0.314c0.115-0.066,0.26-0.096,0.44-0.096h3.328c0.202,0,0.352,0.053,0.449,0.163
			c0.096,0.118,0.146,0.263,0.146,0.448c0,0.183-0.05,0.33-0.146,0.441C31.478,36.746,31.328,36.803,31.126,36.803"/>
		<path fill="#FFFFFF" d="M34.519,40.059h-0.445v2.515c0,0.327-0.054,0.575-0.171,0.734c-0.114,0.153-0.267,0.23-0.453,0.23
			c-0.203,0-0.358-0.08-0.47-0.245c-0.109-0.161-0.164-0.399-0.164-0.72v-6.02c0-0.344,0.062-0.591,0.184-0.743
			c0.12-0.151,0.316-0.229,0.588-0.229h2.05c0.283,0,0.529,0.011,0.726,0.042c0.201,0.036,0.382,0.095,0.545,0.188
			c0.196,0.104,0.369,0.25,0.516,0.442c0.155,0.189,0.268,0.417,0.344,0.668c0.08,0.255,0.118,0.524,0.118,0.81
			c0,0.582-0.131,1.052-0.393,1.403c-0.26,0.348-0.657,0.593-1.191,0.74c0.223,0.147,0.439,0.367,0.64,0.658
			c0.207,0.297,0.386,0.609,0.545,0.936c0.163,0.326,0.283,0.627,0.375,0.889c0.091,0.265,0.132,0.448,0.132,0.545
			c0,0.106-0.022,0.208-0.078,0.311c-0.053,0.103-0.123,0.18-0.214,0.239c-0.091,0.06-0.193,0.088-0.313,0.088
			c-0.139,0-0.26-0.04-0.357-0.125s-0.177-0.191-0.248-0.318c-0.066-0.13-0.166-0.314-0.28-0.566l-0.508-1.055
			c-0.183-0.388-0.342-0.682-0.487-0.883c-0.141-0.208-0.287-0.346-0.432-0.417C34.925,40.097,34.744,40.059,34.519,40.059
			 M35.239,36.771h-1.165v2.15h1.133c0.301,0,0.554-0.034,0.763-0.099c0.205-0.064,0.366-0.179,0.472-0.336
			c0.11-0.161,0.163-0.377,0.163-0.656c0-0.214-0.043-0.406-0.129-0.571c-0.088-0.165-0.209-0.289-0.365-0.37
			C35.962,36.814,35.671,36.771,35.239,36.771"/>
		<path fill="#FFFFFF" d="M47.316,40.221v1.504c0,0.2-0.019,0.356-0.048,0.475c-0.03,0.12-0.086,0.229-0.168,0.328
			c-0.082,0.094-0.183,0.19-0.313,0.277c-0.371,0.258-0.722,0.442-1.066,0.559c-0.342,0.114-0.713,0.176-1.117,0.176
			c-0.466,0-0.898-0.09-1.281-0.276c-0.386-0.186-0.716-0.457-0.985-0.808c-0.274-0.354-0.482-0.78-0.631-1.282
			c-0.148-0.5-0.217-1.061-0.217-1.676c0-0.611,0.069-1.17,0.213-1.672c0.138-0.507,0.352-0.934,0.624-1.291
			c0.275-0.351,0.61-0.618,1.006-0.81c0.392-0.185,0.835-0.278,1.336-0.278c0.413,0,0.778,0.069,1.096,0.214
			c0.316,0.139,0.574,0.316,0.768,0.533c0.198,0.214,0.346,0.437,0.445,0.675c0.102,0.239,0.149,0.45,0.149,0.635
			c0,0.197-0.054,0.366-0.174,0.504c-0.111,0.145-0.252,0.212-0.409,0.212c-0.09,0-0.176-0.023-0.258-0.078
			c-0.079-0.049-0.15-0.129-0.205-0.223c-0.153-0.303-0.283-0.54-0.39-0.693c-0.102-0.158-0.246-0.286-0.426-0.392
			c-0.179-0.109-0.407-0.163-0.684-0.163c-0.29,0-0.542,0.064-0.768,0.189c-0.227,0.125-0.416,0.306-0.58,0.549
			c-0.155,0.243-0.275,0.538-0.361,0.883c-0.086,0.351-0.127,0.74-0.127,1.161c0,0.917,0.161,1.625,0.488,2.119
			c0.331,0.493,0.791,0.743,1.379,0.743c0.288,0,0.551-0.049,0.807-0.147c0.248-0.096,0.503-0.233,0.765-0.41v-1.269h-0.959
			c-0.23,0-0.406-0.044-0.521-0.134c-0.116-0.086-0.176-0.241-0.176-0.453c0-0.174,0.047-0.317,0.145-0.433
			c0.098-0.111,0.233-0.172,0.405-0.172h1.401c0.174,0,0.316,0.018,0.438,0.061c0.116,0.04,0.217,0.127,0.292,0.263
			C47.279,39.753,47.316,39.954,47.316,40.221"/>
		<path fill="#FFFFFF" d="M51.182,35.446c0.633,0,1.179,0.165,1.629,0.49c0.452,0.33,0.797,0.805,1.032,1.407
			c0.236,0.609,0.349,1.322,0.349,2.141c0,0.606-0.064,1.152-0.19,1.643c-0.132,0.502-0.321,0.928-0.576,1.293
			c-0.254,0.363-0.57,0.638-0.941,0.832c-0.375,0.197-0.798,0.288-1.281,0.288c-0.479,0-0.905-0.098-1.28-0.296
			c-0.38-0.197-0.696-0.473-0.948-0.836c-0.25-0.356-0.443-0.789-0.572-1.293c-0.131-0.506-0.194-1.054-0.194-1.643
			c0-0.598,0.066-1.155,0.202-1.65c0.138-0.503,0.328-0.929,0.586-1.286c0.258-0.348,0.57-0.618,0.935-0.81
			C50.295,35.539,50.714,35.446,51.182,35.446 M52.938,39.47c0-0.568-0.071-1.063-0.217-1.487c-0.142-0.426-0.355-0.736-0.619-0.953
			c-0.271-0.216-0.578-0.324-0.921-0.324c-0.244,0-0.477,0.063-0.685,0.179c-0.213,0.12-0.39,0.295-0.542,0.522
			c-0.153,0.225-0.271,0.515-0.359,0.869c-0.085,0.353-0.134,0.756-0.134,1.193c0,0.449,0.049,0.847,0.134,1.208
			c0.087,0.361,0.212,0.654,0.371,0.894c0.158,0.236,0.344,0.411,0.546,0.531c0.211,0.119,0.436,0.174,0.685,0.174
			c0.32,0,0.606-0.098,0.874-0.303c0.266-0.201,0.475-0.515,0.632-0.94C52.864,40.612,52.938,40.09,52.938,39.47"/>
		<path fill="#FFFFFF" d="M47.976,45.558c-0.524,0.083-0.932,0.012-0.963,0.004c-0.179-0.033-0.296-0.208-0.267-0.389
			c0.031-0.182,0.196-0.307,0.374-0.274c0.013,0.002,1.25,0.218,1.986-0.696c0.116-0.141,0.322-0.16,0.457-0.036
			c0.137,0.121,0.155,0.333,0.042,0.474C49.117,45.243,48.489,45.476,47.976,45.558"/>
	</g>
	<g>
		<path fill="#FFFFFF" d="M43.476,29.016h-1.577c-0.48,0-0.567-0.034-0.567-0.268l0.005-0.777c0.001-0.179-0.144-0.328-0.324-0.328
			H40.94c-0.175,0-0.319,0.139-0.325,0.316l-0.021,0.797c0,0.727,0.256,0.925,1.249,0.925h1.568c0.761,0,1.058-0.04,1.058-1.02
			c0-0.199-0.256-0.355-0.456-0.438c-0.024-0.01-0.05,0.009-0.051,0.034C43.92,28.918,43.844,29.016,43.476,29.016"/>
		<path fill="#FFFFFF" d="M45.91,27.186c-0.045-0.095-0.164-0.206-0.317-0.319c-0.354-0.277-0.806-0.523-1.21-0.738h0.284
			c0.364,0,0.66-0.295,0.66-0.66v-1.706c0-0.053-0.041-0.096-0.095-0.096h-2.309c-0.053,0-0.095-0.042-0.095-0.092v-0.298
			c0-0.053,0.042-0.093,0.095-0.093l2.562,0.024c0.749,0,0.694-0.767,0.694-0.767s-0.164,0.104-0.915,0.104h-2.436v-0.083
			c0-0.213-0.171-0.384-0.383-0.384c-0.212,0-0.385,0.171-0.385,0.384v0.083c0,0-2.18-0.006-2.594,0
			c-0.62,0.008-0.776,0.737-0.776,0.737s0.272-0.099,0.91-0.099h2.367c0.051,0,0.093,0.04,0.093,0.093v0.298
			c0,0.05-0.042,0.092-0.093,0.092h-1.697c-0.364,0-0.661,0.296-0.661,0.661v1.707c0,0.051,0.043,0.094,0.097,0.094h2.316
			c0.021,0,0.039,0.017,0.039,0.038v0.564c-0.812,0.007-1.579,0-2.234,0c-0.374,0.002-0.632,0.205-0.632,0.578
			c0.822-0.008,5.078,0,5.934,0c0.001,0,0.002,0,0.003,0c0.23,0.162,0.445,0.335,0.557,0.473c0.021,0.024,0.061,0.025,0.084,0.001
			c0.068-0.08,0.193-0.247,0.176-0.444c0-0.003,0.002-0.004,0.002-0.007c0-0.001,0-0.001-0.002-0.003
			C45.944,27.283,45.935,27.236,45.91,27.186 M42.059,25.57c0,0.033-0.026,0.058-0.057,0.058h-1.631
			c-0.032,0-0.057-0.025-0.057-0.058v-0.376c0-0.034,0.025-0.059,0.057-0.059h1.631c0.031,0,0.057,0.025,0.057,0.059V25.57z
			 M42.059,24.595c0,0.031-0.026,0.057-0.056,0.057h-1.632c-0.032,0-0.057-0.026-0.057-0.057v-0.177c0-0.139,0.112-0.249,0.25-0.249
			h1.438c0.03,0,0.056,0.023,0.056,0.054V24.595z M42.827,24.169h1.709c0.029,0,0.052,0.021,0.052,0.052v0.376
			c0,0.03-0.023,0.055-0.052,0.055h-1.655c-0.03,0-0.054-0.024-0.054-0.055V24.169z M42.827,25.188c0-0.029,0.024-0.054,0.054-0.054
			h1.655c0.029,0,0.052,0.024,0.052,0.054v0.14c-0.017,0.167-0.154,0.299-0.326,0.299h-1.382c-0.03,0-0.054-0.024-0.054-0.053
			V25.188z M42.827,26.73v-0.564c0-0.021,0.017-0.038,0.038-0.038h1.084l-0.024,0.029c-0.094,0.119-0.057,0.289,0.075,0.358
			c0.141,0.074,0.256,0.141,0.377,0.214H42.827z"/>
		<path fill="#FFFFFF" d="M39.871,29.134c0.115-0.251,0.221-0.518,0.308-0.771c0.056-0.164-0.024-0.343-0.182-0.414l-0.025-0.011
			c-0.177-0.08-0.385,0.005-0.45,0.188c-0.152,0.428-0.365,0.877-0.608,1.198c-0.013,0.018-0.008,0.044,0.013,0.056
			C39.259,29.548,39.702,29.467,39.871,29.134"/>
		<circle fill="#FFFFFF" cx="42.798" cy="28.13" r="0.503"/>
		<circle fill="#FFFFFF" cx="45.471" cy="28.809" r="0.523"/>
	</g>
	<g>
		<path fill="#FFFFFF" d="M48.936,27.998c0.057,0,0.109,0.039,0.125,0.093c0.15,0.488,0.205,0.831,0.118,1.053
			c-0.137,0.351-0.599,0.304-0.599,0.304c0.069-0.295-0.026-0.901-0.136-1.285c-0.024-0.082,0.039-0.165,0.126-0.165H48.936z"/>
		<path fill="#FFFFFF" d="M46.766,29.579c0.15,0.093,0.308,0.107,0.482,0.093c0.538-0.037,0.77-0.831,0.962-1.511
			c0.021-0.081-0.04-0.163-0.125-0.163h-0.436c-0.057,0-0.108,0.04-0.122,0.094C47.37,28.677,47.107,29.192,46.766,29.579"/>
		<path fill="#FFFFFF" d="M54.548,27.814l-0.414,0.092c-0.17,0.041-0.343,0.06-0.517,0.06h-0.148v-1.65
			c0-0.296-0.237-0.537-0.536-0.537l-1-0.001v-0.414l1.349,0.001c0.157,0,0.284-0.129,0.284-0.286v-0.024
			c0-0.158-0.127-0.286-0.284-0.286h-0.49v-0.458l0.419-0.001c0.157,0,0.286-0.129,0.286-0.285c0-0.157-0.127-0.286-0.284-0.286
			l-0.421,0.002v-0.422c0,0,0.625-0.009,0.918-0.048c0.427-0.059,0.597-0.392,0.599-0.699l-0.23,0.059
			c-0.243,0.062-0.461,0.073-0.737,0.085l-0.549,0.006l0.001-0.357c0-0.158-0.129-0.285-0.287-0.285h-0.095
			c-0.158,0-0.285,0.126-0.285,0.284l-0.001,0.356l-1.025,0v-0.357c0.001-0.157-0.127-0.285-0.285-0.285h-0.085
			c-0.159,0-0.284,0.126-0.284,0.284v0.358h-0.638c-0.157,0-0.286,0.127-0.286,0.285v0.025c0,0.158,0.128,0.286,0.286,0.286h0.637
			v0.423l-0.441,0.006c-0.158,0-0.286,0.126-0.286,0.282c0,0.158,0.127,0.286,0.286,0.287l0.439-0.004v0.458l-0.635,0
			c-0.157,0-0.286,0.126-0.286,0.285v0.024c0,0.159,0.128,0.286,0.286,0.286l1.467,0.002l-0.001,0.414l-1.343-0.001
			c-0.071,0-0.13,0.059-0.13,0.132l-0.001,2.053L49.8,28.551l0,0.796c0,0.183,0.148,0.333,0.333,0.333
			c0.183,0,0.332-0.15,0.332-0.333v-0.796l2.315,0.002v0.344c0,0.104-0.026,0.139-0.136,0.139c-0.095,0.006-0.438,0.015-0.798,0.015
			c-0.063,0-0.113,0.054-0.109,0.119c0.028,0.38,0.197,0.505,0.425,0.505c0.553,0,0.736,0.039,0.976-0.074
			c0.232-0.112,0.33-0.34,0.331-0.694v-0.353c0,0,0.262,0.018,0.463-0.038C54.389,28.393,54.548,28.133,54.548,27.814
			 M51.274,27.964l-0.808-0.001v-0.55h0.808V27.964z M51.275,26.886l-0.808-0.002l0-0.509h0.808V26.886z M51.102,23.316l1.025,0.002
			v0.422l-1.025-0.001V23.316z M51.102,24.769l0-0.457h1.024v0.458L51.102,24.769z M52.78,27.966l-0.85-0.001l0.002-0.552h0.848
			V27.966z M52.781,26.553l0,0.333h-0.847v-0.511h0.669c0,0,0.019,0,0.055,0.001C52.8,26.376,52.781,26.553,52.781,26.553"/>
		<path fill="#FFFFFF" d="M49.29,22.393l-1.654-0.001c-0.344,0-0.622,0.279-0.622,0.623l-0.003,4.764
			c0,0.031,0.023,0.054,0.053,0.054l1.627,0.001c0.358,0,0.647-0.291,0.647-0.65l0.005-4.736
			C49.344,22.418,49.32,22.393,49.29,22.393z M48.177,27.361c-0.343,0-0.622-0.278-0.622-0.622c0-0.343,0.279-0.622,0.622-0.622
			c0.344,0,0.622,0.279,0.622,0.622C48.799,27.083,48.521,27.361,48.177,27.361z M48.177,25.735c-0.343,0-0.622-0.278-0.622-0.622
			c0-0.343,0.279-0.622,0.622-0.622c0.344,0,0.622,0.279,0.622,0.622C48.799,25.457,48.521,25.735,48.177,25.735z M48.177,24.109
			c-0.343,0-0.622-0.278-0.622-0.622c0-0.343,0.279-0.622,0.622-0.622c0.344,0,0.622,0.279,0.622,0.622
			C48.799,23.831,48.521,24.109,48.177,24.109z"/>
	</g>
	<g>
		<path fill="#FFFFFF" d="M37.803,22.51c0,0.064-0.004,0.149-0.009,0.202c-0.063,1.503-0.143,2.108-0.319,2.333
			c-0.137,0.163-0.28,0.224-0.497,0.25c-0.184,0.016-0.601,0.025-0.955,0.008c-0.404,0-0.426-0.638-0.025-0.638
			c0.341-0.004,0.514-0.009,0.627-0.01c0.112-0.001,0.186-0.017,0.241-0.085c0.096-0.121,0.15-0.491,0.198-1.429
			c0.001-0.021-0.017-0.04-0.039-0.04h-0.986c-0.014,0-0.022,0.01-0.022,0.022c-0.007,1.18-0.34,2.062-1.655,2.079
			c-0.016,0-0.023-0.018-0.013-0.03c0.054-0.072,0.083-0.138,0.101-0.216c0.023-0.11,0.028-0.222,0.029-0.264
			c0-0.01,0.008-0.018,0.018-0.018c0.539-0.014,0.809-0.681,0.815-1.551c0-0.012-0.01-0.022-0.022-0.022h-0.637
			c-0.188,0-0.341-0.155-0.341-0.342c0-0.188,0.153-0.34,0.341-0.34c0,0,3.049,0,3.094,0C37.814,22.419,37.803,22.51,37.803,22.51"
			/>
		<path fill="#FFFFFF" d="M34.224,24.681c0,0,0.029,0.716-0.656,0.716h-0.603c-0.052,0-0.094,0.042-0.094,0.095v0.91
			c0,0.049,0.042,0.092,0.094,0.092h1.172c0,0,0.038,0.7-0.601,0.7h-0.573c-0.05,0-0.092,0.041-0.092,0.094v1.214
			c0,0.251,0.186,0.464,0.436,0.496c0.414,0.049,0.919,0.009,1.446,0.009c0.479,0.009,3.297,0,3.378,0
			c0,0.515-0.503,0.676-0.991,0.676c0,0-2.587,0.004-4.27,0.004c-0.619,0-1.385-0.435-1.413-0.967c0-0.023-0.027-0.027-0.037-0.006
			c-0.355,0.887-0.867,0.893-1.094,0.851c0.409-0.79,0.793-1.893,0.782-3.252c-0.001-0.183,0.147-0.331,0.329-0.329
			c0.179,0,0.325,0.145,0.325,0.325c0,0.174-0.044,1.057-0.062,1.241c-0.064,0.691,0.475,0.976,0.475,0.963l0.014-3.021
			c0-0.051-0.042-0.095-0.094-0.095h-1.3c0,0,0.028-0.716,0.829-0.716h0.471c0.052,0,0.094-0.042,0.094-0.095v-0.752
			c0-0.052-0.042-0.095-0.094-0.095h-0.595h-0.545h-0.156c0-0.384,0.311-0.696,0.697-0.698h0h0.598c0.052,0,0.094-0.042,0.094-0.095
			v-0.532c0-0.189,0.151-0.341,0.339-0.341c0.188,0,0.341,0.152,0.341,0.341v0.532c0,0.053,0.042,0.095,0.094,0.095h0.457v-0.002
			h0.7c0,0.388-0.313,0.701-0.7,0.701h-0.457c-0.052,0-0.094,0.043-0.094,0.095v0.752c0,0.052,0.042,0.095,0.094,0.095H34.224"/>
		<path fill="#FFFFFF" d="M37.534,25.851h-2.128c-0.471,0-0.852,0.381-0.852,0.853v1.725c0,0.051,0.039,0.092,0.09,0.092h2.132
			c0.47,0,0.853-0.382,0.853-0.854v-1.722C37.629,25.892,37.586,25.851,37.534,25.851z M36.092,28.206
			c-1.628-0.603-1.161-1.667-0.678-1.81c0.42-0.125,0.678,0.248,0.678,0.248s0.252-0.355,0.677-0.248
			C37.278,26.524,37.721,27.636,36.092,28.206z"/>
	</g>
	<path fill="#E24740" d="M29.699,25.75c0.294-0.86,0.478-1.982,0.012-3.002c-0.143-0.315-0.327-0.558-0.498-0.74
		c0.061-0.363,0.092-0.729,0.092-1.104c0-0.332-0.044-0.646-0.079-0.899l-0.021-0.152c-0.06-0.496-0.239-0.958-0.504-1.356
		c0.001-0.003,0.001-0.006,0.002-0.008c0.298-1.065,0.296-2.182-0.004-3.415c-0.338-1.382-1.214-2.286-1.937-2.918l-0.105-0.092
		c-0.263-0.232-0.59-0.521-1.002-0.784c-0.464-0.295-0.957-0.54-1.467-0.726c-0.503-0.183-1.11-0.379-1.793-0.444
		c-0.777-0.074-1.459-0.062-2.26,0.043c-0.082,0.011-0.162,0.025-0.242,0.044l-0.075,0.017c-0.347,0.081-0.679,0.157-0.945,0.186
		c-0.018-0.036-0.035-0.071-0.05-0.108c-0.07-0.286-0.122-0.569-0.154-0.843c-0.112-0.943-0.313-1.78-0.616-2.561
		c-0.043-0.111-0.085-0.223-0.127-0.334c-0.17-0.452-0.362-0.963-0.643-1.486c-0.405-0.754-0.762-1.335-1.232-2.005
		c-0.482-0.686-1.183-1.309-1.68-1.664c-0.879-0.627-1.865-1.061-2.93-1.289C11.102,0.037,10.742,0,10.371,0
		C9.109,0,8.037,0.41,7.634,0.586C7.158,0.794,6.767,1.045,6.45,1.249C5.342,1.954,4.58,2.952,4.243,4.135
		C3.988,5.03,3.868,6.43,4.74,8.008C4.8,8.116,4.858,8.225,4.917,8.334C5,8.491,5.085,8.648,5.175,8.811
		C5.3,9.03,5.427,9.195,5.517,9.31l0.121,0.163c0.14,0.189,0.281,0.377,0.433,0.559c0.195,0.231,0.393,0.459,0.59,0.688
		c0.179,0.207,0.359,0.414,0.538,0.626c0.156,0.185,0.313,0.382,0.479,0.606c0.194,0.261,0.394,0.529,0.557,0.782
		c0.039,0.061,0.053,0.096,0.053,0.096v0c0.376,1.108,0.544,2.028,0.527,2.894c-0.003,0.171-0.009,0.343-0.018,0.517
		c-0.675,0.142-1.311,0.504-1.834,1.052c-0.532,0.555-0.911,1.233-1.125,2.016c-0.168,0.614-0.314,1.173-0.405,1.799
		c-0.075,0.506-0.144,1.058-0.154,1.66c0,0.038,0,0.074,0,0.112l0.036,1.312c0.001,0.055,0.005,0.11,0.01,0.165
		c0.028,0.3,0.111,0.938,0.188,1.308c0.145,0.687,0.28,1.26,0.43,1.803c0.138,0.503,0.309,0.987,0.506,1.437
		c0.213,0.487,0.464,0.931,0.683,1.306c0.602,1.024,1.442,1.874,2.567,2.595c0.043,0.028,0.081,0.055,0.117,0.081
		c0.416,0.291,0.933,0.617,1.824,0.812c0.256,0.056,0.601,0.119,1.012,0.119c0.203,0,0.405-0.015,0.605-0.048
		c0.51-0.083,0.988-0.305,1.397-0.621c0.518,0.313,1.038,0.563,1.574,0.759c0.584,0.214,1.183,0.322,1.776,0.322
		c0.18,0,0.364-0.01,0.533-0.028c0.352-0.037,0.688-0.141,0.998-0.292c0.196,0.05,0.378,0.086,0.524,0.113l0.162,0.031
		c0.135,0.028,0.361,0.074,1.337,0.074c0.154,0,0.259-0.008,0.292-0.011c0.564-0.051,0.906-0.102,1.416-0.187
		c0.466-0.079,0.986-0.239,1.589-0.488c0.193-0.081,0.359-0.163,0.525-0.248c0.05-0.026,0.1-0.053,0.172-0.084
		c0.242-0.107,0.488-0.237,0.749-0.396c1.115-0.671,1.958-1.437,2.577-2.341c0.356-0.523,0.574-1.055,0.752-1.522
		c0.157-0.414,0.229-0.797,0.282-1.076l0.024-0.132C30.068,26.962,29.975,26.309,29.699,25.75z"/>
	<g>
		<path fill-rule="evenodd" clip-rule="evenodd" fill="#FFFFFF" d="M7.818,22.809c0.008-0.455,0.063-0.888,0.127-1.334
			c0.073-0.505,0.207-1.004,0.342-1.498c0.094-0.343,0.252-0.661,0.507-0.925c0.297-0.312,0.596-0.403,0.864-0.294
			c0.37,0.149,0.569,0.635,0.604,1.077c0.014,0.181,0.096,0.269,0.257,0.298c0.147,0.026,0.299-0.075,0.33-0.223
			c0.107-0.507,0.248-1.012,0.305-1.525c0.098-0.868,0.183-1.741,0.2-2.612c0.025-1.29-0.248-2.541-0.663-3.759
			c-0.077-0.226-0.189-0.446-0.318-0.647c-0.204-0.32-0.432-0.625-0.659-0.931c-0.184-0.249-0.375-0.492-0.576-0.729
			c-0.372-0.44-0.754-0.871-1.126-1.311c-0.166-0.197-0.314-0.41-0.47-0.616C7.49,7.708,7.433,7.64,7.39,7.564
			C7.246,7.305,7.109,7.042,6.965,6.782C6.625,6.166,6.49,5.522,6.687,4.829c0.181-0.634,0.586-1.092,1.128-1.438
			c0.27-0.173,0.543-0.349,0.837-0.478c0.522-0.228,1.481-0.485,2.257-0.319c0.719,0.153,1.375,0.437,1.985,0.872
			c0.373,0.266,0.821,0.692,1.077,1.056c0.424,0.605,0.722,1.095,1.072,1.747c0.262,0.488,0.439,1.022,0.642,1.542
			c0.243,0.624,0.382,1.272,0.461,1.938c0.048,0.408,0.125,0.815,0.225,1.214c0.061,0.241,0.181,0.469,0.289,0.697
			c0.08,0.168,0.153,0.355,0.281,0.481c0.226,0.223,0.473,0.431,0.742,0.594c0.187,0.113,0.42,0.178,0.64,0.2
			c0.731,0.073,1.441-0.101,2.145-0.263c0.625-0.082,1.128-0.088,1.686-0.034c0.395,0.038,0.789,0.166,1.166,0.303
			c0.336,0.123,0.667,0.288,0.97,0.481c0.287,0.183,0.542,0.42,0.799,0.646c0.51,0.445,0.979,0.941,1.143,1.611
			c0.17,0.696,0.226,1.414,0.026,2.126c-0.179,0.639-0.421,1.252-0.813,1.79c-0.47,0.643-0.951,1.271-1.63,1.728
			c-0.437,0.293-0.878,0.566-1.36,0.77c-0.219,0.093-0.457,0.147-0.687,0.215c-0.237,0.068-0.47,0.163-0.712,0.19
			c-0.905,0.106-1.803,0.232-2.727,0.121c-0.729-0.09-1.416-0.195-2.018-0.668c-0.425-0.334-0.759-0.728-0.9-1.238
			c-0.281-1.012-0.01-1.944,0.568-2.777c0.318-0.459,0.685-0.889,1.163-1.217c0.503-0.347,1.034-0.614,1.626-0.749
			c0.29-0.065,0.591-0.077,0.886-0.111c0.039-0.005,0.075-0.013,0.108-0.026c0,0,0.315-0.478-1.211-0.289
			c-0.207,0.026-0.367,0.042-0.571,0.081c-0.548,0.104-1.098,0.364-1.478,0.594c-0.171,0.103-0.316,0.248-0.479,0.366
			c-0.712,0.514-1.193,1.199-1.435,2.034c-0.109,0.378-0.132,0.784-0.167,1.178c-0.038,0.438,0.148,0.836,0.316,1.22
			c0.276,0.628,0.766,1.096,1.291,1.524c0.176,0.143,0.273,0.328,0.25,0.566c-0.027,0.296-0.058,0.593-0.068,0.891
			c-0.028,0.757,0.204,1.427,0.732,1.976c0.216,0.225,0.315,0.477,0.314,0.784c-0.001,0.178,0.034,0.354,0.047,0.531
			c0.037,0.518,0.239,0.958,0.627,1.303c0.169,0.15,0.227,0.331,0.209,0.544c-0.018,0.233-0.058,0.466-0.063,0.699
			c-0.011,0.474,0.203,0.869,0.471,1.24c0.185,0.258,0.041,0.567-0.275,0.6c-0.404,0.044-0.785-0.013-1.171-0.153
			c-0.595-0.218-1.139-0.525-1.65-0.886c-0.633-0.445-1.238-0.932-1.717-1.55c-0.199-0.256-0.37-0.535-0.559-0.8
			c-0.08-0.112-0.165-0.247-0.331-0.188c-0.15,0.054-0.228,0.261-0.159,0.379c0.136,0.235,0.261,0.478,0.419,0.696
			c0.297,0.414,0.353,0.772,0.38,1.253c0.018,0.323-0.32,0.782-0.637,0.833c-0.231,0.038-0.456,0-0.662-0.045
			c-0.596-0.131-0.763-0.324-1.114-0.549c-0.706-0.453-1.319-1.012-1.749-1.744c-0.198-0.338-0.39-0.681-0.546-1.039
			c-0.155-0.352-0.282-0.719-0.383-1.089c-0.15-0.546-0.277-1.099-0.393-1.652c-0.05-0.242-0.122-0.774-0.145-1.021L7.818,22.809z"
			/>
		<path fill-rule="evenodd" clip-rule="evenodd" fill="#FFFFFF" d="M18.478,26.111c-0.298-0.034-0.708-0.162-0.947-0.325
			c-0.469-0.318-0.774-0.784-0.845-1.361c-0.022-0.186,0.042-0.383,0.072-0.574c0.074-0.489,0.322-0.681,0.816-0.617
			c0.167,0.021,0.331,0.092,0.5,0.108c0.995,0.091,1.988,0.106,2.974-0.111c0.67-0.148,1.314-0.369,1.925-0.678
			c0.253-0.127,0.5-0.275,0.734-0.436c0.311-0.214,0.646-0.414,0.903-0.684c0.454-0.477,0.859-0.998,1.279-1.506
			c0.12-0.146,0.247-0.262,0.45-0.221c0.167,0.034,0.317,0.234,0.344,0.45c0.026,0.22,0.08,0.533,0.081,0.756
			c0,0.72-0.175,1.329-0.477,1.945c-0.326,0.667-0.707,1.167-1.26,1.652c-0.338,0.297-0.751,0.515-1.145,0.74
			c-0.274,0.155-0.564,0.292-0.864,0.387c-0.414,0.131-0.741,0.277-1.17,0.352C20.875,26.158,19.315,26.204,18.478,26.111z"/>
		<path fill-rule="evenodd" clip-rule="evenodd" fill="#FFFFFF" d="M21.138,28.838c-0.321,0.034-0.645,0.085-0.967,0.085
			c-0.756,0-1.444-0.204-1.95-0.807c-0.222-0.268-0.505-0.508-0.494-0.913c0.007-0.24,0.139-0.439,0.376-0.474
			c0.396-0.058,0.601-0.042,1.034-0.041c0.112,0,0.779,0.022,0.892,0.013c0.659-0.051,0.929-0.088,1.583-0.178
			c0.494-0.068,0.988-0.18,1.461-0.336c0.44-0.146,0.856-0.369,1.274-0.575c0.282-0.138,0.568-0.282,0.822-0.464
			c0.591-0.426,1.226-0.963,1.652-1.421c0.131-0.141,0.296-0.171,0.454-0.055c0.045,0.034,0.098,0.072,0.12,0.123
			c0.21,0.459-0.198,1.542-0.479,1.96c-0.375,0.557-0.788,1.031-1.303,1.403c-0.678,0.489-1.301,0.841-2.025,1.13
			c-0.146,0.059-0.396,0.145-0.546,0.179C23.042,28.467,22.16,28.729,21.138,28.838z"/>
		<path fill-rule="evenodd" clip-rule="evenodd" fill="#FFFFFF" d="M21.617,31.586c-0.055,0.005-0.832-0.01-0.886-0.022
			c-0.237-0.05-0.521-0.087-0.754-0.171c-0.254-0.09-0.482-0.208-0.705-0.355c-0.44-0.292-0.584-0.767-0.657-1.26
			c-0.049-0.341,0.248-0.545,0.57-0.426c0.253,0.093,0.514,0.164,0.773,0.239c0.426,0.125,0.853,0.168,1.305,0.149
			c0.707-0.031,1.388-0.157,2.042-0.393c0.529-0.192,1.045-0.435,1.524-0.749c0.734-0.481,1.442-0.989,1.978-1.7
			c0.046-0.06,0.094-0.131,0.159-0.162c0.072-0.033,0.175-0.06,0.242-0.032c0.213,0.086,0.277,0.216,0.232,0.443
			c-0.053,0.271-0.095,0.549-0.192,0.806c-0.13,0.341-0.271,0.689-0.475,0.988c-0.461,0.674-1.092,1.176-1.788,1.597
			c-0.151,0.092-0.307,0.177-0.469,0.249c-0.235,0.103-0.403,0.21-0.641,0.308c-0.323,0.134-0.71,0.274-1.038,0.33
			C22.37,31.503,22.092,31.542,21.617,31.586z"/>
	</g>
</g>
</svg>
